<?xml version="1.0" standalone="no"?>
<!DOCTYPE svg PUBLIC "-//W3C//DTD SVG 20010904//EN"
 "http://www.w3.org/TR/2001/REC-SVG-20010904/DTD/svg10.dtd">
<svg version="1.0" xmlns="http://www.w3.org/2000/svg"
 width="260.000000pt" height="260.000000pt" viewBox="0 0 260.000000 260.000000"
 preserveAspectRatio="xMidYMid meet">
<metadata>
Created by potrace 1.11, written by Peter Selinger 2001-2013
</metadata>
<g transform="translate(0.000000,260.000000) scale(0.100000,-0.100000)"
fill="#000000" stroke="none">
<path d="M606 1283 c-48 -274 -87 -504 -86 -510 0 -10 68 -13 304 -13 168 0
307 3 309 8 3 4 8 28 11 55 l7 47 -245 0 c-228 0 -246 1 -246 18 0 9 14 91 30
182 17 91 30 168 30 173 0 4 105 7 234 7 l234 0 10 47 c6 26 9 49 7 51 -2 2
-104 3 -228 2 -124 0 -228 3 -230 7 -3 4 7 76 22 158 l26 150 250 5 250 5 6
30 c4 17 7 40 8 53 l1 22 -308 0 -308 0 -88 -497z"/>
<path d="M1437 1763 c-3 -10 -8 -35 -12 -55 l-6 -38 161 0 c88 0 160 -3 160
-6 0 -4 -33 -196 -74 -428 -41 -232 -76 -432 -78 -446 -3 -24 -1 -25 57 -25
l59 0 80 453 80 452 162 0 161 0 7 38 c13 79 51 72 -373 72 -353 0 -380 -1
-384 -17z"/>
</g>
</svg>
